<svg width="236" height="151" viewBox="0 0 236 151" fill="none" xmlns="http://www.w3.org/2000/svg">
<path d="M21.696 36.8C25.216 36.8 28.32 37.44 31.008 38.72C33.76 39.936 36.288 41.824 38.592 44.384L33.984 49.376C32 47.456 30.048 46.08 28.128 45.248C26.208 44.352 24.096 43.904 21.792 43.904C19.04 43.904 16.8 44.8 15.072 46.592C13.408 48.32 12.576 50.624 12.576 53.504C12.576 56.32 13.376 58.624 14.976 60.416C16.64 62.208 19.744 63.968 24.288 65.696C29.536 67.68 33.504 70.144 36.192 73.088C38.88 76.032 40.224 80.224 40.224 85.664C40.224 89.184 39.392 92.448 37.728 95.456C36.128 98.4 33.824 100.768 30.816 102.56C27.808 104.288 24.32 105.152 20.352 105.152C16.384 105.152 12.864 104.416 9.792 102.944C6.72 101.472 3.936 99.36 1.44 96.608L6.144 91.616C8.384 93.664 10.592 95.232 12.768 96.32C15.008 97.408 17.472 97.952 20.16 97.952C23.488 97.952 26.144 96.864 28.128 94.688C30.112 92.512 31.104 89.568 31.104 85.856C31.104 82.656 30.304 80.096 28.704 78.176C27.104 76.256 24.128 74.496 19.776 72.896C14.208 70.784 10.112 68.224 7.488 65.216C4.928 62.208 3.648 58.432 3.648 53.888C3.648 50.752 4.416 47.872 5.952 45.248C7.488 42.624 9.632 40.576 12.384 39.104C15.136 37.568 18.24 36.8 21.696 36.8ZM80.8508 37.856L79.8908 44.864H59.2508V66.848H77.2028V73.856H59.2508V96.992H81.2348V104H50.5148V37.856H80.8508ZM121.802 104L108.938 75.68C108.49 75.744 107.818 75.776 106.922 75.776H100.97V104H92.2335V37.856H105.482C113.226 37.856 118.986 39.456 122.762 42.656C126.538 45.856 128.426 50.464 128.426 56.48C128.426 60.704 127.434 64.352 125.45 67.424C123.466 70.432 120.618 72.64 116.906 74.048L131.402 104H121.802ZM106.154 69.056C110.762 69.056 114.09 68.064 116.138 66.08C118.186 64.032 119.21 60.832 119.21 56.48C119.21 52.448 118.154 49.504 116.042 47.648C113.93 45.728 110.378 44.768 105.386 44.768H100.97V69.056H106.154ZM149.157 37.856V104H140.421V37.856H149.157ZM194.101 37.856L193.141 44.864H172.501V66.848H190.453V73.856H172.501V96.992H194.485V104H163.765V37.856H194.101ZM217.015 52.352C222.583 52.352 227.351 54.24 231.319 58.016L227.671 62.912C225.879 61.568 224.151 60.576 222.487 59.936C220.823 59.232 219.063 58.88 217.207 58.88C214.967 58.88 213.175 59.52 211.831 60.8C210.551 62.016 209.911 63.712 209.911 65.888C209.911 68 210.551 69.664 211.831 70.88C213.111 72.096 215.543 73.344 219.127 74.624C223.735 76.288 227.127 78.272 229.303 80.576C231.479 82.88 232.567 86.016 232.567 89.984C232.567 94.784 230.935 98.528 227.671 101.216C224.471 103.84 220.471 105.152 215.671 105.152C209.271 105.152 203.927 102.944 199.639 98.528L204.055 93.824C207.639 96.96 211.447 98.528 215.479 98.528C218.039 98.528 220.087 97.824 221.623 96.416C223.159 95.008 223.927 93.024 223.927 90.464C223.927 88.736 223.639 87.328 223.063 86.24C222.487 85.152 221.495 84.16 220.087 83.264C218.679 82.368 216.631 81.44 213.943 80.48C209.463 78.816 206.263 76.864 204.343 74.624C202.423 72.32 201.463 69.504 201.463 66.176C201.463 63.616 202.103 61.28 203.383 59.168C204.727 57.056 206.583 55.392 208.951 54.176C211.319 52.96 214.007 52.352 217.015 52.352Z" fill="black"/>
<path d="M161.16 122.16C160.52 120.688 159.539 119.536 158.216 118.704C156.915 117.851 155.379 117.424 153.608 117.424C151.944 117.424 150.451 117.808 149.128 118.576C147.805 119.344 146.76 120.443 145.992 121.872C145.224 123.28 144.84 124.923 144.84 126.8C144.84 128.677 145.224 130.331 145.992 131.76C146.76 133.189 147.805 134.288 149.128 135.056C150.451 135.824 151.944 136.208 153.608 136.208C155.165 136.208 156.563 135.877 157.8 135.216C159.059 134.533 160.061 133.573 160.808 132.336C161.576 131.077 162.013 129.616 162.12 127.952H152.712V126.128H164.488V127.76C164.381 129.723 163.848 131.504 162.888 133.104C161.928 134.683 160.637 135.931 159.016 136.848C157.416 137.765 155.613 138.224 153.608 138.224C151.539 138.224 149.661 137.744 147.976 136.784C146.291 135.803 144.957 134.448 143.976 132.72C143.016 130.971 142.536 128.997 142.536 126.8C142.536 124.603 143.016 122.64 143.976 120.912C144.957 119.163 146.291 117.808 147.976 116.848C149.661 115.867 151.539 115.376 153.608 115.376C155.997 115.376 158.088 115.973 159.88 117.168C161.672 118.363 162.973 120.027 163.784 122.16H161.16ZM183.727 120.528V138H181.487V134.928C180.975 136.016 180.186 136.848 179.119 137.424C178.053 138 176.858 138.288 175.535 138.288C173.445 138.288 171.738 137.648 170.415 136.368C169.093 135.067 168.431 133.189 168.431 130.736V120.528H170.639V130.48C170.639 132.379 171.109 133.829 172.047 134.832C173.007 135.835 174.309 136.336 175.951 136.336C177.637 136.336 178.981 135.803 179.983 134.736C180.986 133.669 181.487 132.101 181.487 130.032V120.528H183.727ZM189.961 117.232C189.513 117.232 189.129 117.072 188.809 116.752C188.489 116.432 188.329 116.037 188.329 115.568C188.329 115.099 188.489 114.715 188.809 114.416C189.129 114.096 189.513 113.936 189.961 113.936C190.409 113.936 190.793 114.096 191.113 114.416C191.433 114.715 191.593 115.099 191.593 115.568C191.593 116.037 191.433 116.432 191.113 116.752C190.793 117.072 190.409 117.232 189.961 117.232ZM191.081 120.528V138H188.841V120.528H191.081ZM195.13 129.232C195.13 127.44 195.492 125.872 196.218 124.528C196.943 123.163 197.935 122.117 199.194 121.392C200.474 120.645 201.914 120.272 203.514 120.272C205.05 120.272 206.436 120.645 207.674 121.392C208.911 122.139 209.818 123.109 210.394 124.304V114.32H212.634V138H210.394V134.096C209.86 135.312 208.986 136.315 207.77 137.104C206.554 137.872 205.124 138.256 203.482 138.256C201.882 138.256 200.442 137.883 199.162 137.136C197.903 136.389 196.911 135.333 196.186 133.968C195.482 132.603 195.13 131.024 195.13 129.232ZM210.394 129.264C210.394 127.856 210.106 126.619 209.53 125.552C208.954 124.485 208.164 123.664 207.162 123.088C206.18 122.512 205.092 122.224 203.898 122.224C202.66 122.224 201.551 122.501 200.57 123.056C199.588 123.611 198.81 124.421 198.234 125.488C197.679 126.533 197.402 127.781 197.402 129.232C197.402 130.661 197.679 131.92 198.234 133.008C198.81 134.075 199.588 134.896 200.57 135.472C201.551 136.027 202.66 136.304 203.898 136.304C205.092 136.304 206.18 136.016 207.162 135.44C208.164 134.864 208.954 134.043 209.53 132.976C210.106 131.909 210.394 130.672 210.394 129.264ZM233.556 128.368C233.556 129.136 233.534 129.723 233.492 130.128H218.996C219.06 131.451 219.38 132.581 219.956 133.52C220.532 134.459 221.289 135.173 222.228 135.664C223.166 136.133 224.19 136.368 225.3 136.368C226.75 136.368 227.966 136.016 228.948 135.312C229.95 134.608 230.612 133.659 230.932 132.464H233.3C232.873 134.171 231.956 135.568 230.548 136.656C229.161 137.723 227.412 138.256 225.3 138.256C223.657 138.256 222.185 137.893 220.884 137.168C219.582 136.421 218.558 135.376 217.812 134.032C217.086 132.667 216.724 131.077 216.724 129.264C216.724 127.451 217.086 125.861 217.812 124.496C218.537 123.131 219.55 122.085 220.852 121.36C222.153 120.635 223.636 120.272 225.3 120.272C226.964 120.272 228.414 120.635 229.652 121.36C230.91 122.085 231.87 123.067 232.532 124.304C233.214 125.52 233.556 126.875 233.556 128.368ZM231.284 128.304C231.305 127.003 231.038 125.893 230.484 124.976C229.95 124.059 229.214 123.365 228.276 122.896C227.337 122.427 226.313 122.192 225.204 122.192C223.54 122.192 222.121 122.725 220.948 123.792C219.774 124.859 219.124 126.363 218.996 128.304H231.284Z" fill="black"/>
<path d="M2.72 30.272V14.144H4.512V25.248L4.416 26.688L4.896 26.432H6.72L8.448 28.128V30.272L6.72 32H4.448L2.72 30.272ZM6.24 30.688L7.04 29.888V28.544L6.24 27.744H4.96L4.16 28.544V29.888L4.96 30.688H6.24ZM24.0905 15.136L25.5305 16.608V32H23.7385V25.792L20.2185 22.368H15.6425L14.2345 23.744V25.344L14.1065 26.688L14.6185 26.432H16.4425L18.1385 28.128V30.272L16.4425 32H14.1705L12.4425 30.272V23.104L14.8745 20.736H20.7945L23.7385 23.584V17.312L22.2025 15.776H14.8105L13.4345 17.152V18.656H11.6425V16.608L14.1065 14.144H22.6825L25.2425 11.616L26.4265 12.832L24.0905 15.136ZM13.8505 28.544V29.888L14.6505 30.688H15.9305L16.7305 29.888V28.544L15.9305 27.744H14.6505L13.8505 28.544ZM34.426 30.272V28.096L36.154 26.432H37.85L38.458 26.688L38.33 25.152V21.344L29.85 19.424V16.608L32.314 14.144H41.594V15.776H33.082L31.642 17.184V18.304L40.122 20.128V30.272L38.394 32H36.154L34.426 30.272ZM37.882 30.688L38.714 29.888V28.544L37.882 27.744H36.666L35.834 28.544V29.888L36.666 30.688H37.882ZM41.5925 3.456V10.912H28.6325V8.224L31.5765 5.28H38.2325L39.8965 6.88V3.456H41.5925ZM39.9605 8.736L37.8485 6.688H32.2485L30.2645 8.672V9.536H39.9605V8.736ZM47.34 30.272V10.624L51.244 6.08V4.16L50.732 3.68H49.388L46.572 6.464L43.692 3.68H42.252V2.112H44.236L46.572 4.448L48.812 2.112H51.66L52.972 3.392V6.432L49.132 10.976V25.248L49.004 26.688L49.516 26.432H51.34L53.036 28.128V30.272L51.34 32H49.068L47.34 30.272ZM50.828 30.688L51.628 29.888V28.544L50.828 27.744H49.548L48.748 28.544V29.888L49.548 30.688H50.828ZM56.7528 22.048L58.5128 19.84L55.7288 17.12L58.7048 14.144H67.3128L69.7448 16.576V32H67.9528V17.312L66.4168 15.776H59.2808L57.9048 17.12L60.5928 19.84L58.5448 22.56V32H56.7528V22.048ZM89.2688 16.608V32H87.4768V17.344L85.9088 15.776H78.5488L76.9808 17.344V29.984L80.2128 26.944L81.1088 26.144L79.4128 24.448V22.272L81.1408 20.576H83.3488L85.0448 22.272V24.512L77.0448 32H75.1888V16.608L77.6848 14.144H86.7728L89.2688 16.608ZM80.7888 24L81.5888 24.8H82.8688L83.6688 24V22.656L82.8688 21.856H81.5888L80.7888 22.656V24ZM86.4 5.568L88.032 7.232V9.344L86.496 10.912H84.256L82.72 9.344V7.104L88.672 1.024L89.792 2.144L86.4 5.568ZM86.72 7.648L85.984 6.912H84.8L84.064 7.648V8.896L84.8 9.632H85.984L86.72 8.896V7.648Z" fill="black"/>
</svg>
