<svg width="26" height="24" viewBox="0 0 26 24" fill="none" xmlns="http://www.w3.org/2000/svg">
<path d="M20.1059 6.26234L20.112 6.26847C20.4599 6.61485 20.6454 7.06655 20.6328 7.58498C20.6207 8.08443 20.4112 8.86203 19.5656 9.72566L13.0677 16.1947L6.5697 9.7256C5.72413 8.86199 5.51467 8.08442 5.50255 7.58498C5.48997 7.06655 5.67541 6.61485 6.02334 6.26847L6.02334 6.26847L6.02948 6.26234C6.19385 6.09813 6.39037 5.96666 6.60835 5.87655C6.82638 5.78643 7.0609 5.73975 7.29828 5.73975C7.53566 5.73975 7.77019 5.78643 7.98821 5.87655C8.20372 5.96564 8.39825 6.09515 8.56147 6.25675L9.51724 7.22064C10.4561 8.16747 11.7343 8.70007 13.0677 8.70007C14.4011 8.70007 15.6792 8.16747 16.6181 7.22064L17.5739 6.25675C17.7371 6.09515 17.9316 5.96564 18.1471 5.87655C18.3652 5.78642 18.5997 5.73975 18.8371 5.73975C19.0744 5.73975 19.309 5.78643 19.527 5.87655C19.745 5.96666 19.9415 6.09813 20.1059 6.26234Z" stroke="#2563EB" stroke-width="10" stroke-linecap="round" stroke-linejoin="round"/>
</svg>
