<svg width="249" height="182" viewBox="0 0 249 182" fill="none" xmlns="http://www.w3.org/2000/svg">
<g clip-path="url(#clip0_484_3575)">
<path d="M242.512 176.637L240.044 177.425L235.826 168.3L239.468 167.137L242.512 176.637Z" fill="#FFB6B6"/>
<path d="M243.905 178.824L235.948 181.364L235.916 181.263C235.654 180.443 235.728 179.553 236.123 178.788C236.518 178.023 237.201 177.446 238.022 177.183L239.123 175.619L242.188 175.854L242.882 175.632L243.905 178.824Z" fill="#2F2E41"/>
<path d="M219.116 179.094H216.525L215.293 169.119H219.116L219.116 179.094Z" fill="#FFB6B6"/>
<path d="M219.777 181.6L211.424 181.6V181.495C211.424 180.634 211.766 179.809 212.376 179.2C212.986 178.591 213.813 178.249 214.675 178.249L216.201 177.094L219.048 178.249L219.777 178.249L219.777 181.6Z" fill="#2F2E41"/>
<path d="M206.743 76.0155C206.549 76.2574 206.41 76.5389 206.336 76.8402C206.263 77.1415 206.256 77.4552 206.317 77.7593C206.378 78.0633 206.505 78.3503 206.69 78.6001C206.874 78.8498 207.111 79.0562 207.383 79.2046L206.141 86.6399L209.728 85.051L210.358 78.2339C210.577 77.76 210.615 77.2222 210.464 76.7223C210.313 76.2225 209.983 75.7954 209.537 75.522C209.092 75.2485 208.561 75.1477 208.046 75.2387C207.531 75.3296 207.067 75.606 206.743 76.0155Z" fill="#FFB6B6"/>
<path d="M239.444 137.694C239.444 137.694 240.049 129.839 237.907 128.38C235.766 126.921 218.109 126.187 218.109 126.187L217.012 127.626C217.012 127.626 216.913 128.298 215.25 133.774L214.573 164.338C214.506 167.318 213.985 171.062 215.232 171.828L215.838 174.852H219.171L221.012 169.767C221.806 168.488 222.144 166.978 221.972 165.484L222.977 160.994C222.907 160.924 222.858 160.835 222.834 160.738C222.721 160.069 222.871 159.382 223.255 158.822C223.343 158.691 223.441 158.566 223.547 158.449L227.231 142.001L232.2 161.242L235.267 168.076C234.966 168.792 235.166 169.441 235.715 170.044C235.511 170.604 236.394 170.997 236.773 171.722L237.958 173.945L241.291 172.13L241.594 170.315C241.795 169.777 241.253 169.42 240.853 168.303C241.599 167.512 241.558 166.741 240.839 165.989L239.579 160.565L239.565 158.079L239.549 155.422L239.444 137.694Z" fill="#2F2E41"/>
<path d="M225.507 90.9959C228.705 90.9959 231.297 88.4082 231.297 85.2162C231.297 82.0242 228.705 79.4365 225.507 79.4365C222.309 79.4365 219.717 82.0242 219.717 85.2162C219.717 88.4082 222.309 90.9959 225.507 90.9959Z" fill="#FFB6B6"/>
<path d="M231.333 86.1215L231.238 85.9307C231.09 85.6355 229.866 83.1813 229.712 82.5503L228.171 82.7312L224.159 82.7318L224.716 81.897L223.242 82.089C222.703 82.1543 222.188 82.3481 221.74 82.6541C221.465 82.8364 221.233 83.0755 221.059 83.3553C220.532 84.2553 219.728 85.7275 219.72 85.7423L219.643 85.8831L218.974 84.7607C218.965 84.7171 218.137 80.4038 220.909 78.9409C221.305 78.1703 221.916 77.5312 222.67 77.1021C223.423 76.6729 224.285 76.4722 225.151 76.5245C225.468 76.1643 225.914 75.943 226.392 75.9086C227.05 75.8743 227.733 76.2192 228.418 76.9379C229.329 77.8924 230.577 79.1997 231.331 80.6511L231.539 80.9475C231.835 81.3716 231.981 81.8817 231.955 82.3978C232.116 83.2215 232.059 84.0725 231.79 84.8676L231.333 86.1215Z" fill="#2F2E41"/>
<path d="M239.418 96.2151L233.124 94.456L229.92 92.0835L223.627 93.0858L223.599 93.1213C222.497 94.5501 220.799 95.9617 218.993 96.0179C218.528 96.033 218.067 96.0991 217.617 96.2151L217.013 107.243V117.102C217.107 117.134 217.191 117.19 217.258 117.263C217.325 117.337 217.371 117.427 217.393 117.524C217.57 118.529 217.554 119.559 217.344 120.558C217.269 120.906 217.158 121.245 217.013 121.571C217.188 121.934 217.28 122.331 217.28 122.735C217.28 123.138 217.188 123.536 217.013 123.899C216.475 124.41 216.544 124.968 217.013 125.556V127.626C227.228 136.134 237.881 128.849 237.881 128.849L237.539 112.655L239.418 96.2151Z" fill="#3F3D56"/>
<path d="M219.027 97.7297L217.615 96.215L209.836 95.3355L210.566 83.4093L206.325 80.3892L204.404 90.7383C203.744 91.3087 203.621 91.8704 204.092 92.4228C203.563 93.4784 203.427 94.3368 203.607 95.0365L203.209 97.1789L217.603 107.243L219.027 97.7297Z" fill="#3F3D56"/>
<path d="M238.269 136.726C238.101 136.465 237.993 136.17 237.952 135.863C237.911 135.556 237.938 135.243 238.031 134.947C238.124 134.651 238.281 134.379 238.491 134.151C238.701 133.922 238.958 133.742 239.245 133.623L238.802 126.098L242.199 128.059L242.099 134.904C242.267 135.399 242.247 135.938 242.044 136.418C241.84 136.899 241.467 137.289 240.995 137.514C240.523 137.738 239.984 137.782 239.482 137.637C238.979 137.492 238.548 137.168 238.269 136.726Z" fill="#FFB6B6"/>
<path d="M237.053 98.0973L239.418 96.2153C239.418 96.2153 241.835 97.5465 242.571 99.9332C243.307 102.32 244.594 115.906 244.594 115.906L244.793 120.965C245.047 121.767 244.98 122.483 244.374 123.053C245.285 123.994 245.149 124.777 243.905 125.394L242.615 133.348L238.564 132.508L239.076 116.824L235.766 106.726L237.053 98.0973Z" fill="#3F3D56"/>
<path d="M75.2416 35.794H74.4125V13.122C74.4125 11.3988 74.0724 9.69243 73.4118 8.10041C72.7512 6.50838 71.7829 5.06182 70.5622 3.84334C69.3415 2.62485 67.8923 1.65829 66.2974 0.998852C64.7025 0.339411 62.993 1.19161e-06 61.2667 0H13.1458C9.65931 -7.21954e-06 6.31563 1.38247 3.85032 3.84331C1.38501 6.30415 8.03628e-06 9.64176 0 13.1219V137.502C-1.60726e-06 140.983 1.38499 144.32 3.85029 146.781C6.3156 149.242 9.65927 150.624 13.1457 150.624H61.2666C62.993 150.624 64.7024 150.285 66.2973 149.626C67.8922 148.966 69.3414 148 70.5621 146.781C71.7828 145.563 72.7511 144.116 73.4118 142.524C74.0724 140.932 74.4124 139.226 74.4124 137.502V51.9323H75.2416V35.794Z" fill="#3F3D56"/>
<path d="M61.7967 3.41408H55.5153C55.8042 4.121 55.9145 4.88797 55.8364 5.64745C55.7584 6.40692 55.4944 7.13559 55.0678 7.76924C54.6412 8.4029 54.065 8.92211 53.39 9.28113C52.715 9.64015 51.9619 9.82796 51.197 9.82802H23.6292C22.8643 9.82797 22.1112 9.64016 21.4362 9.28114C20.7612 8.92212 20.185 8.40291 19.7584 7.76924C19.3318 7.13558 19.0678 6.40692 18.9898 5.64744C18.9117 4.88796 19.022 4.12098 19.3109 3.41406H13.4441C10.8404 3.41406 8.34339 4.44648 6.50233 6.28421C4.66126 8.12193 3.62696 10.6144 3.62695 13.2134V137.411C3.62695 138.698 3.88088 139.972 4.37423 141.161C4.86759 142.35 5.59071 143.431 6.50231 144.34C7.41391 145.25 8.49614 145.972 9.68721 146.465C10.8783 146.957 12.1548 147.211 13.444 147.211H61.7967C63.0859 147.211 64.3625 146.957 65.5536 146.465C66.7446 145.972 67.8269 145.25 68.7384 144.341C69.6501 143.431 70.3732 142.35 70.8665 141.161C71.3599 139.972 71.6138 138.698 71.6138 137.411V13.2134C71.6138 11.9265 71.3599 10.6523 70.8665 9.46335C70.3732 8.27445 69.6501 7.19418 68.7384 6.28423C67.8269 5.37428 66.7446 4.65246 65.5536 4.16C64.3625 3.66754 63.0859 3.41408 61.7967 3.41408Z" fill="white"/>
<path d="M61.333 49.9308C61.3365 52.7521 60.8325 55.5511 59.8449 58.1945C59.3965 59.4053 58.8463 60.5762 58.2004 61.6945C56.1238 65.3115 53.1273 68.317 49.5138 70.4072C45.9003 72.4973 41.7979 73.5981 37.6216 73.5981C33.4452 73.5981 29.3429 72.4973 25.7294 70.4072C22.1159 68.317 19.1193 65.3115 17.0427 61.6945C16.8325 61.3307 16.6332 60.9615 16.4447 60.5869C14.8329 57.3954 13.9661 53.881 13.9092 50.3074C13.8524 46.7337 14.607 43.1936 16.1166 39.9526C17.6261 36.7117 19.8512 33.854 22.6251 31.594C25.399 29.3341 28.6496 27.7304 32.1331 26.9035C35.6165 26.0766 39.2423 26.0478 42.7385 26.8193C46.2346 27.5908 49.5104 29.1426 52.32 31.3583C55.1295 33.5739 57.4 36.3959 58.9609 39.6125C60.5219 42.829 61.3329 46.3567 61.333 49.9308Z" fill="#F1F1F1"/>
<path d="M38.8534 53.9263C41.357 53.9263 43.3866 51.9004 43.3866 49.4014C43.3866 46.9023 41.357 44.8765 38.8534 44.8765C36.3499 44.8765 34.3203 46.9023 34.3203 49.4014C34.3203 51.9004 36.3499 53.9263 38.8534 53.9263Z" fill="#FF6582"/>
<path d="M16.4434 60.5869C18.4406 58.4324 21.1107 55.0117 23.6148 57.4834C24.8716 58.6492 26.8385 61.5383 28.7213 59.6496L43.424 44.9735C43.7007 44.7007 44.0294 44.4859 44.3905 44.3417C44.7516 44.1975 45.138 44.1268 45.5269 44.1338C45.9158 44.1407 46.2994 44.2252 46.6551 44.3822C47.0108 44.5392 47.3315 44.7656 47.5983 45.0481L59.8436 58.1945C59.3951 59.4053 58.8449 60.5761 58.199 61.6945H17.0414L16.4434 60.5869Z" fill="#1D4ED8"/>
<path d="M48.746 97.9941C48.5838 97.9945 48.4283 98.0591 48.3137 98.1737C48.1991 98.2883 48.1348 98.4437 48.1348 98.6056C48.1348 98.7675 48.1991 98.9229 48.3137 99.0375C48.4283 99.1521 48.5838 99.2167 48.746 99.2171H55.174C55.3365 99.2171 55.4923 99.1526 55.6072 99.038C55.7221 98.9233 55.7866 98.7678 55.7866 98.6056C55.7866 98.4434 55.7221 98.2879 55.6072 98.1732C55.4923 98.0586 55.3365 97.9941 55.174 97.9941H48.746Z" fill="#1D4ED8"/>
<path d="M19.7864 89.0127C19.6239 89.0127 19.4681 89.0771 19.3532 89.1918C19.2384 89.3065 19.1738 89.462 19.1738 89.6242C19.1738 89.7863 19.2384 89.9419 19.3532 90.0565C19.4681 90.1712 19.6239 90.2356 19.7864 90.2356H55.4559C55.6184 90.2356 55.7742 90.1712 55.8891 90.0565C56.004 89.9419 56.0685 89.7863 56.0685 89.6242C56.0685 89.462 56.004 89.3065 55.8891 89.1918C55.7742 89.0771 55.6184 89.0127 55.4559 89.0127H19.7864Z" fill="#E5E5E5"/>
<path d="M19.785 93.5034C19.6228 93.5038 19.4673 93.5684 19.3528 93.683C19.2382 93.7976 19.1738 93.9529 19.1738 94.1149C19.1738 94.2768 19.2382 94.4321 19.3528 94.5468C19.4673 94.6614 19.6228 94.726 19.785 94.7263H55.4546C55.5351 94.7265 55.6149 94.7108 55.6894 94.6802C55.7639 94.6495 55.8316 94.6045 55.8886 94.5477C55.9456 94.4909 55.9909 94.4235 56.0218 94.3492C56.0526 94.2749 56.0685 94.1953 56.0685 94.1149C56.0685 94.0345 56.0526 93.9548 56.0218 93.8806C55.9909 93.8063 55.9456 93.7388 55.8886 93.682C55.8316 93.6252 55.7639 93.5802 55.6894 93.5496C55.6149 93.5189 55.5351 93.5032 55.4546 93.5034H19.785Z" fill="#E5E5E5"/>
<path d="M48.7454 126.808C48.5829 126.808 48.4271 126.873 48.3122 126.987C48.1974 127.102 48.1328 127.257 48.1328 127.42C48.1328 127.582 48.1974 127.737 48.3122 127.852C48.4271 127.967 48.5829 128.031 48.7454 128.031H55.1735C55.3359 128.031 55.4917 127.967 55.6066 127.852C55.7215 127.737 55.786 127.582 55.786 127.42C55.786 127.257 55.7215 127.102 55.6066 126.987C55.4917 126.873 55.3359 126.808 55.1735 126.808H48.7454Z" fill="#1D4ED8"/>
<path d="M19.7864 117.827C19.6239 117.827 19.4681 117.892 19.3532 118.006C19.2384 118.121 19.1738 118.276 19.1738 118.439C19.1738 118.601 19.2384 118.756 19.3532 118.871C19.4681 118.986 19.6239 119.05 19.7864 119.05H55.4559C55.5365 119.05 55.6163 119.035 55.6908 119.004C55.7653 118.973 55.8329 118.928 55.89 118.871C55.947 118.815 55.9922 118.747 56.0231 118.673C56.054 118.599 56.0699 118.519 56.0699 118.439C56.0699 118.358 56.054 118.279 56.0231 118.204C55.9922 118.13 55.947 118.063 55.89 118.006C55.8329 117.949 55.7653 117.904 55.6908 117.873C55.6163 117.843 55.5365 117.827 55.4559 117.827H19.7864Z" fill="#E5E5E5"/>
<path d="M19.7864 122.318C19.6239 122.318 19.4681 122.382 19.3532 122.497C19.2384 122.612 19.1738 122.767 19.1738 122.929C19.1738 123.091 19.2384 123.247 19.3532 123.362C19.4681 123.476 19.6239 123.541 19.7864 123.541H55.4559C55.6184 123.541 55.7742 123.476 55.8891 123.362C56.004 123.247 56.0685 123.091 56.0685 122.929C56.0685 122.767 56.004 122.612 55.8891 122.497C55.7742 122.382 55.6184 122.318 55.4559 122.318H19.7864Z" fill="#E5E5E5"/>
<path d="M203.342 68.9267L198.448 66.7176C198.424 67.37 198.239 68.0064 197.91 68.5707C197.581 69.1351 197.118 69.61 196.562 69.9537C196.006 70.2974 195.374 70.4993 194.721 70.5417C194.068 70.584 193.415 70.4655 192.819 70.1966L171.339 60.5013C170.743 60.2322 170.222 59.821 169.823 59.3039C169.424 58.7868 169.158 58.1795 169.049 57.5358C168.94 56.892 168.992 56.2314 169.199 55.6122C169.406 54.9929 169.763 54.4341 170.238 53.9848L165.666 51.9216C163.638 51.0059 161.328 50.9321 159.244 51.7166C157.161 52.5011 155.475 54.0795 154.558 56.1045L110.72 152.879C110.266 153.881 110.014 154.964 109.979 156.063C109.944 157.163 110.126 158.259 110.515 159.289C110.904 160.319 111.493 161.262 112.247 162.064C113.001 162.867 113.906 163.513 114.911 163.967L152.587 180.972C154.616 181.888 156.926 181.961 159.009 181.177C161.092 180.392 162.778 178.814 163.695 176.789L207.533 80.0148C207.987 79.0121 208.239 77.9299 208.274 76.83C208.31 75.7301 208.127 74.6341 207.738 73.6044C207.349 72.5748 206.761 71.6318 206.006 70.8292C205.252 70.0265 204.347 69.3801 203.342 68.9267Z" fill="#BFDBFE"/>
<path d="M159.738 115.005C156.439 113.51 153.593 111.174 151.485 108.232C149.377 105.29 148.081 101.846 147.729 98.2466C147.694 97.8897 147.668 97.5227 147.653 97.1567C147.51 93.9468 148.131 90.7487 149.466 87.8251C150.708 85.0871 152.536 82.6545 154.823 80.6989C157.109 78.7432 159.797 77.3121 162.698 76.5065C165.599 75.701 168.641 75.5406 171.611 76.0366C174.58 76.5327 177.405 77.6732 179.885 79.3776C182.365 81.082 184.44 83.3088 185.964 85.9009C187.487 88.493 188.423 91.3874 188.704 94.3797C188.985 97.372 188.605 100.389 187.59 103.219C186.576 106.049 184.952 108.622 182.832 110.757C182.043 111.554 181.189 112.284 180.277 112.938C177.337 115.051 173.891 116.355 170.285 116.718C166.68 117.081 163.043 116.49 159.738 115.005ZM176.447 78.1207C171.619 75.9486 166.125 75.7767 161.171 77.6427C156.216 79.5087 152.205 83.2602 150.018 88.0743C148.722 90.9118 148.119 94.0157 148.259 97.1311C148.273 97.4862 148.298 97.8416 148.332 98.1879C148.668 101.684 149.923 105.029 151.97 107.885C154.017 110.741 156.783 113.007 159.989 114.454C163.194 115.901 166.726 116.478 170.226 116.125C173.727 115.773 177.072 114.504 179.923 112.447C180.807 111.812 181.636 111.105 182.402 110.331C184.67 108.045 186.352 105.245 187.302 102.171C188.252 99.0956 188.442 95.8369 187.857 92.6725C187.272 89.5081 185.929 86.532 183.942 83.998C181.955 81.4641 179.384 79.4477 176.447 78.1207Z" fill="white"/>
<path d="M161.769 77.0888L161.203 77.3052L175.602 114.828L176.168 114.611L161.769 77.0888Z" fill="white"/>
<path d="M186.57 88.792L148.979 103.163L149.195 103.728L186.787 89.3569L186.57 88.792Z" fill="white"/>
<path d="M167.928 144.322L132.368 128.272C132.104 128.153 131.899 127.934 131.797 127.664C131.695 127.394 131.704 127.094 131.823 126.831L135.168 119.446C135.288 119.183 135.507 118.978 135.778 118.876C136.049 118.774 136.349 118.783 136.613 118.902L172.172 134.952C172.436 135.071 172.641 135.29 172.743 135.56C172.846 135.831 172.836 136.13 172.717 136.394L169.372 143.778C169.253 144.041 169.033 144.246 168.763 144.348C168.492 144.45 168.192 144.441 167.928 144.322ZM136.363 119.453C136.246 119.4 136.112 119.396 135.992 119.442C135.871 119.487 135.774 119.578 135.72 119.695L132.375 127.08C132.322 127.197 132.318 127.33 132.364 127.45C132.409 127.571 132.5 127.668 132.618 127.721L168.177 143.771C168.295 143.824 168.428 143.828 168.549 143.783C168.669 143.737 168.767 143.646 168.82 143.529L172.165 136.145C172.218 136.027 172.222 135.894 172.177 135.774C172.131 135.654 172.04 135.556 171.923 135.503L136.363 119.453Z" fill="white"/>
<path d="M159.314 163.338L123.755 147.288C123.491 147.169 123.286 146.95 123.184 146.68C123.081 146.41 123.091 146.11 123.21 145.847L126.555 138.462C126.675 138.199 126.894 137.994 127.164 137.892C127.435 137.79 127.735 137.799 127.999 137.918L163.559 153.968C163.823 154.087 164.028 154.306 164.13 154.577C164.232 154.847 164.223 155.147 164.104 155.41L160.759 162.794C160.639 163.057 160.42 163.263 160.149 163.364C159.879 163.466 159.578 163.457 159.314 163.338ZM127.75 138.469C127.632 138.417 127.499 138.412 127.378 138.458C127.258 138.503 127.16 138.594 127.107 138.711L123.762 146.096C123.709 146.213 123.705 146.346 123.75 146.467C123.796 146.587 123.887 146.684 124.004 146.737L159.564 162.787C159.682 162.84 159.815 162.844 159.936 162.799C160.056 162.753 160.153 162.662 160.207 162.545L163.552 155.161C163.605 155.043 163.609 154.91 163.563 154.79C163.518 154.67 163.427 154.572 163.309 154.519L127.75 138.469Z" fill="white"/>
<path d="M145.569 115.222C144.838 111.586 143.259 108.173 140.959 105.261C138.621 102.303 135.765 99.7928 132.531 97.8513C129.188 95.825 125.548 94.3349 121.742 93.4356C117.012 92.3013 112.127 91.9318 107.273 91.9785C102.383 92.0254 97.5094 92.4827 92.6501 92.9921C92.0324 93.0568 91.4149 93.1222 90.7974 93.1883C90.2217 93.2496 90.2154 94.1577 90.7974 94.0957C95.585 93.5855 100.38 93.0839 105.195 92.9296C109.971 92.7766 114.782 92.9642 119.482 93.8739C123.396 94.5989 127.173 95.9316 130.674 97.8236C133.935 99.5871 136.86 101.909 139.315 104.684C141.721 107.396 143.46 110.63 144.396 114.13C144.509 114.571 144.607 115.016 144.693 115.463C144.803 116.036 145.679 115.793 145.569 115.222Z" fill="#2F2E41"/>
<path d="M94.0455 86.6954L86.7848 94.4044C86.7365 94.4539 86.6999 94.5136 86.678 94.5792C86.656 94.6447 86.6492 94.7144 86.6581 94.7829C86.6669 94.8515 86.6912 94.9172 86.7291 94.975C86.767 95.0329 86.8175 95.0814 86.8768 95.117L93.4273 98.2425C93.9525 98.4931 94.4142 97.711 93.8861 97.459L87.3356 94.3335L87.4276 95.0461L94.6883 87.337C95.0888 86.9118 94.4473 86.2689 94.0455 86.6954Z" fill="#2F2E41"/>
<path d="M248.64 182H110.076C109.98 182 109.888 181.962 109.821 181.895C109.753 181.827 109.715 181.735 109.715 181.64C109.715 181.544 109.753 181.453 109.821 181.385C109.888 181.318 109.98 181.28 110.076 181.28H248.64C248.735 181.28 248.827 181.318 248.895 181.385C248.962 181.453 249 181.544 249 181.64C249 181.735 248.962 181.827 248.895 181.895C248.827 181.962 248.735 182 248.64 182Z" fill="#CACACA"/>
</g>
<defs>
<clipPath id="clip0_484_3575">
<rect width="249" height="182" fill="white"/>
</clipPath>
</defs>
</svg>
