<svg width="236" height="151" viewBox="0 0 236 151" fill="none" xmlns="http://www.w3.org/2000/svg">
<path d="M21.696 36.8C25.216 36.8 28.32 37.44 31.008 38.72C33.76 39.936 36.288 41.824 38.592 44.384L33.984 49.376C32 47.456 30.048 46.08 28.128 45.248C26.208 44.352 24.096 43.904 21.792 43.904C19.04 43.904 16.8 44.8 15.072 46.592C13.408 48.32 12.576 50.624 12.576 53.504C12.576 56.32 13.376 58.624 14.976 60.416C16.64 62.208 19.744 63.968 24.288 65.696C29.536 67.68 33.504 70.144 36.192 73.088C38.88 76.032 40.224 80.224 40.224 85.664C40.224 89.184 39.392 92.448 37.728 95.456C36.128 98.4 33.824 100.768 30.816 102.56C27.808 104.288 24.32 105.152 20.352 105.152C16.384 105.152 12.864 104.416 9.792 102.944C6.72 101.472 3.936 99.36 1.44 96.608L6.144 91.616C8.384 93.664 10.592 95.232 12.768 96.32C15.008 97.408 17.472 97.952 20.16 97.952C23.488 97.952 26.144 96.864 28.128 94.688C30.112 92.512 31.104 89.568 31.104 85.856C31.104 82.656 30.304 80.096 28.704 78.176C27.104 76.256 24.128 74.496 19.776 72.896C14.208 70.784 10.112 68.224 7.488 65.216C4.928 62.208 3.648 58.432 3.648 53.888C3.648 50.752 4.416 47.872 5.952 45.248C7.488 42.624 9.632 40.576 12.384 39.104C15.136 37.568 18.24 36.8 21.696 36.8ZM80.8508 37.856L79.8908 44.864H59.2508V66.848H77.2028V73.856H59.2508V96.992H81.2348V104H50.5148V37.856H80.8508ZM121.802 104L108.938 75.68C108.49 75.744 107.818 75.776 106.922 75.776H100.97V104H92.2335V37.856H105.482C113.226 37.856 118.986 39.456 122.762 42.656C126.538 45.856 128.426 50.464 128.426 56.48C128.426 60.704 127.434 64.352 125.45 67.424C123.466 70.432 120.618 72.64 116.906 74.048L131.402 104H121.802ZM106.154 69.056C110.762 69.056 114.09 68.064 116.138 66.08C118.186 64.032 119.21 60.832 119.21 56.48C119.21 52.448 118.154 49.504 116.042 47.648C113.93 45.728 110.378 44.768 105.386 44.768H100.97V69.056H106.154ZM149.157 37.856V104H140.421V37.856H149.157ZM194.101 37.856L193.141 44.864H172.501V66.848H190.453V73.856H172.501V96.992H194.485V104H163.765V37.856H194.101ZM217.015 52.352C222.583 52.352 227.351 54.24 231.319 58.016L227.671 62.912C225.879 61.568 224.151 60.576 222.487 59.936C220.823 59.232 219.063 58.88 217.207 58.88C214.967 58.88 213.175 59.52 211.831 60.8C210.551 62.016 209.911 63.712 209.911 65.888C209.911 68 210.551 69.664 211.831 70.88C213.111 72.096 215.543 73.344 219.127 74.624C223.735 76.288 227.127 78.272 229.303 80.576C231.479 82.88 232.567 86.016 232.567 89.984C232.567 94.784 230.935 98.528 227.671 101.216C224.471 103.84 220.471 105.152 215.671 105.152C209.271 105.152 203.927 102.944 199.639 98.528L204.055 93.824C207.639 96.96 211.447 98.528 215.479 98.528C218.039 98.528 220.087 97.824 221.623 96.416C223.159 95.008 223.927 93.024 223.927 90.464C223.927 88.736 223.639 87.328 223.063 86.24C222.487 85.152 221.495 84.16 220.087 83.264C218.679 82.368 216.631 81.44 213.943 80.48C209.463 78.816 206.263 76.864 204.343 74.624C202.423 72.32 201.463 69.504 201.463 66.176C201.463 63.616 202.103 61.28 203.383 59.168C204.727 57.056 206.583 55.392 208.951 54.176C211.319 52.96 214.007 52.352 217.015 52.352Z" fill="white"/>
<path d="M160.16 122.16C159.52 120.688 158.539 119.536 157.216 118.704C155.915 117.851 154.379 117.424 152.608 117.424C150.944 117.424 149.451 117.808 148.128 118.576C146.805 119.344 145.76 120.443 144.992 121.872C144.224 123.28 143.84 124.923 143.84 126.8C143.84 128.677 144.224 130.331 144.992 131.76C145.76 133.189 146.805 134.288 148.128 135.056C149.451 135.824 150.944 136.208 152.608 136.208C154.165 136.208 155.563 135.877 156.8 135.216C158.059 134.533 159.061 133.573 159.808 132.336C160.576 131.077 161.013 129.616 161.12 127.952H151.712V126.128H163.488V127.76C163.381 129.723 162.848 131.504 161.888 133.104C160.928 134.683 159.637 135.931 158.016 136.848C156.416 137.765 154.613 138.224 152.608 138.224C150.539 138.224 148.661 137.744 146.976 136.784C145.291 135.803 143.957 134.448 142.976 132.72C142.016 130.971 141.536 128.997 141.536 126.8C141.536 124.603 142.016 122.64 142.976 120.912C143.957 119.163 145.291 117.808 146.976 116.848C148.661 115.867 150.539 115.376 152.608 115.376C154.997 115.376 157.088 115.973 158.88 117.168C160.672 118.363 161.973 120.027 162.784 122.16H160.16ZM182.727 120.528V138H180.487V134.928C179.975 136.016 179.186 136.848 178.119 137.424C177.053 138 175.858 138.288 174.535 138.288C172.445 138.288 170.738 137.648 169.415 136.368C168.093 135.067 167.431 133.189 167.431 130.736V120.528H169.639V130.48C169.639 132.379 170.109 133.829 171.047 134.832C172.007 135.835 173.309 136.336 174.951 136.336C176.637 136.336 177.981 135.803 178.983 134.736C179.986 133.669 180.487 132.101 180.487 130.032V120.528H182.727ZM188.961 117.232C188.513 117.232 188.129 117.072 187.809 116.752C187.489 116.432 187.329 116.037 187.329 115.568C187.329 115.099 187.489 114.715 187.809 114.416C188.129 114.096 188.513 113.936 188.961 113.936C189.409 113.936 189.793 114.096 190.113 114.416C190.433 114.715 190.593 115.099 190.593 115.568C190.593 116.037 190.433 116.432 190.113 116.752C189.793 117.072 189.409 117.232 188.961 117.232ZM190.081 120.528V138H187.841V120.528H190.081ZM194.13 129.232C194.13 127.44 194.492 125.872 195.218 124.528C195.943 123.163 196.935 122.117 198.194 121.392C199.474 120.645 200.914 120.272 202.514 120.272C204.05 120.272 205.436 120.645 206.674 121.392C207.911 122.139 208.818 123.109 209.394 124.304V114.32H211.634V138H209.394V134.096C208.86 135.312 207.986 136.315 206.77 137.104C205.554 137.872 204.124 138.256 202.482 138.256C200.882 138.256 199.442 137.883 198.162 137.136C196.903 136.389 195.911 135.333 195.186 133.968C194.482 132.603 194.13 131.024 194.13 129.232ZM209.394 129.264C209.394 127.856 209.106 126.619 208.53 125.552C207.954 124.485 207.164 123.664 206.162 123.088C205.18 122.512 204.092 122.224 202.898 122.224C201.66 122.224 200.551 122.501 199.57 123.056C198.588 123.611 197.81 124.421 197.234 125.488C196.679 126.533 196.402 127.781 196.402 129.232C196.402 130.661 196.679 131.92 197.234 133.008C197.81 134.075 198.588 134.896 199.57 135.472C200.551 136.027 201.66 136.304 202.898 136.304C204.092 136.304 205.18 136.016 206.162 135.44C207.164 134.864 207.954 134.043 208.53 132.976C209.106 131.909 209.394 130.672 209.394 129.264ZM232.556 128.368C232.556 129.136 232.534 129.723 232.492 130.128H217.996C218.06 131.451 218.38 132.581 218.956 133.52C219.532 134.459 220.289 135.173 221.228 135.664C222.166 136.133 223.19 136.368 224.3 136.368C225.75 136.368 226.966 136.016 227.948 135.312C228.95 134.608 229.612 133.659 229.932 132.464H232.3C231.873 134.171 230.956 135.568 229.548 136.656C228.161 137.723 226.412 138.256 224.3 138.256C222.657 138.256 221.185 137.893 219.884 137.168C218.582 136.421 217.558 135.376 216.812 134.032C216.086 132.667 215.724 131.077 215.724 129.264C215.724 127.451 216.086 125.861 216.812 124.496C217.537 123.131 218.55 122.085 219.852 121.36C221.153 120.635 222.636 120.272 224.3 120.272C225.964 120.272 227.414 120.635 228.652 121.36C229.91 122.085 230.87 123.067 231.532 124.304C232.214 125.52 232.556 126.875 232.556 128.368ZM230.284 128.304C230.305 127.003 230.038 125.893 229.484 124.976C228.95 124.059 228.214 123.365 227.276 122.896C226.337 122.427 225.313 122.192 224.204 122.192C222.54 122.192 221.121 122.725 219.948 123.792C218.774 124.859 218.124 126.363 217.996 128.304H230.284Z" fill="white"/>
<path d="M3.72 30.272V14.144H5.512V25.248L5.416 26.688L5.896 26.432H7.72L9.448 28.128V30.272L7.72 32H5.448L3.72 30.272ZM7.24 30.688L8.04 29.888V28.544L7.24 27.744H5.96L5.16 28.544V29.888L5.96 30.688H7.24ZM25.0905 15.136L26.5305 16.608V32H24.7385V25.792L21.2185 22.368H16.6425L15.2345 23.744V25.344L15.1065 26.688L15.6185 26.432H17.4425L19.1385 28.128V30.272L17.4425 32H15.1705L13.4425 30.272V23.104L15.8745 20.736H21.7945L24.7385 23.584V17.312L23.2025 15.776H15.8105L14.4345 17.152V18.656H12.6425V16.608L15.1065 14.144H23.6825L26.2425 11.616L27.4265 12.832L25.0905 15.136ZM14.8505 28.544V29.888L15.6505 30.688H16.9305L17.7305 29.888V28.544L16.9305 27.744H15.6505L14.8505 28.544ZM35.426 30.272V28.096L37.154 26.432H38.85L39.458 26.688L39.33 25.152V21.344L30.85 19.424V16.608L33.314 14.144H42.594V15.776H34.082L32.642 17.184V18.304L41.122 20.128V30.272L39.394 32H37.154L35.426 30.272ZM38.882 30.688L39.714 29.888V28.544L38.882 27.744H37.666L36.834 28.544V29.888L37.666 30.688H38.882ZM42.5925 3.456V10.912H29.6325V8.224L32.5765 5.28H39.2325L40.8965 6.88V3.456H42.5925ZM40.9605 8.736L38.8485 6.688H33.2485L31.2645 8.672V9.536H40.9605V8.736ZM48.34 30.272V10.624L52.244 6.08V4.16L51.732 3.68H50.388L47.572 6.464L44.692 3.68H43.252V2.112H45.236L47.572 4.448L49.812 2.112H52.66L53.972 3.392V6.432L50.132 10.976V25.248L50.004 26.688L50.516 26.432H52.34L54.036 28.128V30.272L52.34 32H50.068L48.34 30.272ZM51.828 30.688L52.628 29.888V28.544L51.828 27.744H50.548L49.748 28.544V29.888L50.548 30.688H51.828ZM57.7528 22.048L59.5128 19.84L56.7288 17.12L59.7048 14.144H68.3128L70.7448 16.576V32H68.9528V17.312L67.4168 15.776H60.2808L58.9048 17.12L61.5928 19.84L59.5448 22.56V32H57.7528V22.048ZM90.2688 16.608V32H88.4768V17.344L86.9088 15.776H79.5488L77.9808 17.344V29.984L81.2128 26.944L82.1088 26.144L80.4128 24.448V22.272L82.1408 20.576H84.3488L86.0448 22.272V24.512L78.0448 32H76.1888V16.608L78.6848 14.144H87.7728L90.2688 16.608ZM81.7888 24L82.5888 24.8H83.8688L84.6688 24V22.656L83.8688 21.856H82.5888L81.7888 22.656V24ZM87.4 5.568L89.032 7.232V9.344L87.496 10.912H85.256L83.72 9.344V7.104L89.672 1.024L90.792 2.144L87.4 5.568ZM87.72 7.648L86.984 6.912H85.8L85.064 7.648V8.896L85.8 9.632H86.984L87.72 8.896V7.648Z" fill="white"/>
</svg>
